<?xml version="1.0" encoding="UTF-8"?><svg id="Layer_1" xmlns="http://www.w3.org/2000/svg" viewBox="0 0 141.99 43.1"><defs><style>.cls-1{fill:#f62822;}.cls-2{fill:#fff;}</style></defs><g id="image"><path id="Path_11" class="cls-2 c-logo__glue" d="M70.62,8.87h3.34V30.45c.19,3.43-1,6.79-3.3,9.33-2.44,2.31-5.73,3.5-9.09,3.29-2.83,.1-5.62-.71-7.96-2.32-2.14-1.52-3.63-3.79-4.18-6.37h5.08c.46,1.32,1.4,2.43,2.63,3.1,1.33,.75,2.83,1.14,4.35,1.12,3.9,.2,7.22-2.79,7.42-6.69,.01-.28,.01-.56,0-.84v-1.15c-4.06,3.39-9.78,3.93-14.4,1.35-1.81-1.06-3.31-2.58-4.36-4.4-1.08-1.9-1.64-4.06-1.62-6.24-.02-2.19,.53-4.34,1.6-6.24,1.03-1.87,2.56-3.43,4.41-4.5,1.89-1.09,4.04-1.66,6.22-1.63,1.72-.01,3.42,.33,5,1.01,1.53,.64,2.9,1.59,4.05,2.79l.8-3.2Zm-14.73,17.17c2.93,3.01,7.75,3.07,10.76,.14,1.49-1.45,2.32-3.45,2.3-5.54,.17-4.2-3.09-7.75-7.3-7.93-4.2-.17-7.75,3.09-7.93,7.3,0,.21,0,.42,0,.63-.04,2.02,.74,3.97,2.17,5.39Zm23.98,7.59V0h5.07V33.63h-5.07Zm30.02-2.41c-2.2,2.07-5.15,3.16-8.17,3.02-3.03,.14-5.98-.95-8.19-3.02-2.11-2.15-3.22-5.08-3.07-8.09V8.87h5.07v13.59c-.1,1.84,.49,3.65,1.66,5.07,1.16,1.25,2.82,1.93,4.53,1.85,1.7,.08,3.35-.6,4.5-1.86,1.16-1.42,1.74-3.23,1.64-5.06V8.87h5.08v14.31c.14,2.99-.97,5.9-3.06,8.04h0Zm32.1-9.9c0,.55-.05,1.11-.12,1.66h-20.1c.42,3.83,3.74,6.67,7.58,6.49,1.37,.02,2.73-.31,3.94-.96,1.13-.64,2.06-1.57,2.7-2.7h5.39c-.89,2.49-2.52,4.64-4.68,6.16-2.16,1.5-4.73,2.28-7.35,2.24-3.41,.08-6.7-1.27-9.06-3.74-2.42-2.46-3.74-5.8-3.65-9.25-.03-2.31,.54-4.59,1.66-6.62,1.07-1.95,2.65-3.57,4.57-4.68,1.97-1.13,4.21-1.71,6.49-1.69,2.32-.04,4.61,.57,6.61,1.75,1.9,1.14,3.45,2.79,4.46,4.76,1.05,2.03,1.59,4.29,1.56,6.57h0Zm-12.64-8.47c-1.75-.05-3.46,.52-4.83,1.62-1.35,1.1-2.27,2.63-2.62,4.33h14.97c-.37-1.73-1.33-3.29-2.7-4.41-1.38-1.05-3.09-1.59-4.83-1.54h0Z"/><path id="Path_12" class="cls-1 c-logo__glue" d="M35.06,12.55c-.13-3.34-2.93-5.95-6.27-5.84H6.26c-3.33-.1-6.13,2.51-6.26,5.84V30.54c.13,3.33,2.92,5.94,6.26,5.84h13.49c.16,0,.32-.07,.44-.17,.12-.11,.18-.26,.17-.42v-13.62c0-.16-.06-.31-.17-.42-.12-.11-.28-.17-.44-.17h-4.26c-.16,0-.32,.07-.44,.17-.12,.11-.19,.26-.19,.42v8.82H6.75c-.7-.11-1.24-.65-1.35-1.35V13.46c.12-.69,.66-1.22,1.35-1.35H28.39c.69,.11,1.24,.66,1.35,1.35V30.99h-4.83c-.33,0-.61,.26-.62,.59v4.19c0,.16,.06,.31,.17,.42,.12,.11,.28,.17,.44,.17h9.52c.34,0,.62-.26,.63-.59V12.55Z"/></g></svg>